<svg width="18" height="20" viewBox="0 0 18 20" fill="none" xmlns="http://www.w3.org/2000/svg">
<path d="M17.3332 3.65006L8.99984 0.733398L0.666504 3.65006V10.3667C0.666504 13.8059 2.77817 16.2101 4.7465 17.7026C5.9349 18.5946 7.23836 19.322 8.6215 19.8651C8.71595 19.9006 8.81095 19.9345 8.9065 19.9667L8.99984 20.0001L9.09484 19.9667C9.27705 19.9034 9.45766 19.8356 9.6365 19.7634C10.9246 19.2327 12.1399 18.5402 13.2532 17.7026C15.2223 16.2101 17.3332 13.8059 17.3332 10.3667V3.65006ZM8.16734 13.2126L4.63317 9.67673L5.8115 8.49756L8.16817 10.8551L12.8823 6.1409L14.0615 7.31923L8.16734 13.2126Z" fill="#34D399"/>
</svg>
