<svg width="56" height="56" viewBox="0 0 56 56" fill="none" xmlns="http://www.w3.org/2000/svg">
<rect width="56" height="56" rx="8" fill="#C1E965"/>
<path d="M39.85 16.3333H43V13H13V16.3333H16.15C13.0663 19.4333 11.3347 23.6275 11.3333 28C11.3333 34.6167 15.1833 40.3167 20.7667 43H35.2333C38.0608 41.6445 40.447 39.5167 42.1163 36.8623C43.7855 34.208 44.6697 31.1356 44.6667 28C44.6667 23.45 42.8167 19.3333 39.85 16.3333ZM18.5333 18.6833L20.8333 16.3333H35.1667L37.4667 18.6833C38.3729 19.589 39.1422 20.6221 39.75 21.75C37.9189 21.4522 36.1801 20.7396 34.6667 19.6667C30.6 22.5167 25.4 22.5167 21.3333 19.6667C19.7667 20.7667 18 21.4833 16.25 21.75C16.85 20.6333 17.6167 19.6 18.5333 18.6833ZM34.4167 39.6667H21.5833C19.484 38.5283 17.7323 36.8424 16.5144 34.7882C15.2965 32.734 14.658 30.3881 14.6667 28C14.6667 27.05 14.7833 26.1 14.9833 25.2C17.1979 25.14 19.3697 24.5757 21.3333 23.55C25.5 25.7167 30.5 25.7167 34.6667 23.55C36.6667 24.5833 38.8333 25.15 41.0167 25.2C41.2167 26.1 41.3333 27.05 41.3333 28C41.342 30.3881 40.7035 32.734 39.4856 34.7882C38.2677 36.8424 36.516 38.5283 34.4167 39.6667ZM36.3333 32.1667C36.3333 34.4667 33.5333 36.3333 30.0833 36.3333C28.15 36.3333 26.4333 35.7333 25.2167 34.9333C24.1167 36.3333 21.8833 36.3333 19.6667 36.3333C21.5 36.3333 22.1667 34.4667 22.1667 32.1667C22.1667 29.8667 21.5 28 19.6667 28C21.8833 28 24.1167 28 25.2833 29.5167C26.4333 28.6 28.15 28 30.0833 28C33.5333 28 36.3333 29.8667 36.3333 32.1667Z" fill="#27272A"/>
</svg>
