<svg width="707" height="649" viewBox="0 0 707 649" fill="none" xmlns="http://www.w3.org/2000/svg">
<path fill-rule="evenodd" clip-rule="evenodd" d="M108.005 0.378082H0.378082V108.005H96.8552L108.005 96.8552V0.378082ZM119.453 108.005L108.447 96.999V0.378082H216.074V108.005H119.453ZM108.447 119.289L119.289 108.447H216.074V216.074H108.447V119.289ZM97.0192 108.447L108.005 119.433V216.074H0.378082V108.447H97.0192ZM0 0V108.069V108.384V216.137V216.452V324.205V324.52V432.274V432.589V540.342V540.657V648.726H108.069H108.384H216.137H216.452H324.205H324.52H432.274H432.589H540.342H540.657H648.411H648.726H756.479H756.794H864.547H864.863H972.616H972.931H1081L1081 540.657V432.589V432.274V324.205V216.452V108.384V108.069V0H972.931H972.616H864.863H864.547H756.794H756.479H648.726H648.411H540.657H540.342H432.589H432.274H324.52H324.205H216.452H216.137H108.384H108.069H0ZM216.515 0.378082H324.142V108.005H216.515V0.378082ZM432.211 0.378082H324.583V108.005H432.211V0.378082ZM432.652 0.378082H540.279V108.005H432.652V0.378082ZM648.348 0.378082H540.72V108.005H648.348V0.378082ZM648.789 0.378082H756.416V108.005H648.789V0.378082ZM864.485 0.378082H756.857V108.005H864.485V0.378082ZM864.926 0.378082H972.553V108.005H864.926V0.378082ZM1080.62 0.378082H972.995V108.005H1080.62V0.378082ZM216.515 108.447H324.142V216.074H216.515V108.447ZM432.211 108.447H324.583V216.074H421.385L432.211 205.248V108.447ZM443.305 216.074L432.652 205.421V108.447H540.279V216.074H443.305ZM432.652 227.682L443.782 216.552L443.745 216.515H540.279V324.142H432.652V227.682ZM420.944 216.515L420.907 216.552L432.211 227.855V324.142H324.583V216.515H420.944ZM648.348 108.447H540.72V216.074H648.348V108.447ZM648.789 108.447H756.416V216.074H648.789V108.447ZM864.485 108.447H756.857V216.074H864.485V108.447ZM864.926 108.447H972.553V186.215L972.37 186.397L942.694 216.074H864.926V108.447ZM942.253 216.515H864.926V313.539L865.287 313.178L876.252 324.142H972.553V246.889L972.37 246.706L942.508 216.844L942.216 216.552L942.253 216.515ZM972.553 246.305L942.8 216.552L942.837 216.515H961.262L961.225 216.552L972.553 227.88V246.305ZM972.994 246.666V324.142H1080.62V216.515H1003.07L1003.11 216.552L1002.82 216.844L972.994 246.666ZM1002.49 216.515L1002.52 216.552L972.994 246.082V227.658L984.1 216.552L984.063 216.515H1002.49ZM1002.63 216.074H1080.62V108.447H972.995V186.437L1002.63 216.074ZM972.995 187.021L1002.05 216.074H983.622L972.995 205.446V187.021ZM972.553 186.799L943.278 216.074H961.703L972.553 205.224V186.799ZM864.926 335.691L865.287 336.053L876.725 324.615L876.693 324.583H972.553V432.211H864.926V335.691ZM853.882 324.583L853.85 324.615L864.485 335.25V432.211H756.857V324.583H853.882ZM864.485 313.98L854.323 324.142H756.857V216.515H864.485V313.98ZM0.378082 216.515H108.005V324.142H0.378082V216.515ZM216.074 216.515H108.447V324.142H216.074V216.515ZM216.515 216.515H324.142V324.142H216.515V216.515ZM648.348 216.515H540.721V324.142H648.348V216.515ZM648.789 216.515H756.416V324.142H648.789V216.515ZM0.378082 324.583H108.005V432.211H0.378082V324.583ZM216.074 324.583H108.447V432.211H186.336L186.196 432.071L186.488 431.779L216.074 402.193V324.583ZM216.074 402.777L186.78 432.071L186.92 432.211H205.345L205.205 432.071L216.074 421.202V402.777ZM216.515 420.761V402.336L216.642 402.208L246.505 432.071L246.365 432.211H227.94L228.08 432.071L216.643 420.633L216.515 420.761ZM216.515 443.381L216.643 443.508L227.499 432.652H245.924L216.642 461.933L216.515 461.806V443.381ZM205.786 432.652L216.074 442.94V461.365L187.361 432.652H205.786ZM186.777 432.652H108.447V540.279H216.074V461.949L186.777 432.652ZM216.515 462.39V540.279H324.142V432.652H246.508L216.934 462.225L216.642 462.517L216.515 462.39ZM246.949 432.211H324.142V324.583H216.515V401.752L216.642 401.624L216.934 401.916L246.797 431.779L247.089 432.071L246.949 432.211ZM432.211 324.583H324.583V432.211H432.211V324.583ZM432.652 324.583H540.279V432.211H432.652V324.583ZM648.348 324.583H540.72V432.211H648.348V324.583ZM648.789 324.583H756.416V432.211H648.789V324.583ZM1080.62 324.583H972.995V432.211H1080.62V324.583ZM0.378082 432.652H108.005V540.279H0.378082V432.652ZM432.211 432.652H324.583V540.279H432.211V432.652ZM432.652 432.652H540.279V540.279H432.652V432.652ZM648.348 432.652H540.72V540.279H648.348V432.652ZM648.789 432.652H756.416V540.279H648.789V432.652ZM864.485 432.652H756.857V540.279H864.485V432.652ZM864.926 432.652H972.553V540.279H864.926V432.652ZM1080.62 432.652H972.995V540.279H1080.62V432.652ZM0.378082 540.721H108.005V648.348H0.378082V540.721ZM216.074 540.721H108.447V648.348H216.074V540.721ZM216.515 540.721H324.142V648.348H216.515V540.721ZM432.211 540.721H324.583V648.348H432.211V540.721ZM432.652 540.721H540.279V648.348H432.652V540.721ZM648.348 540.721H540.72V648.348H648.348V540.721ZM648.789 540.721H756.416V648.348H648.789V540.721ZM864.485 540.721H756.857V648.348H864.485V540.721ZM864.926 540.721H972.553V648.348H864.926V540.721ZM1080.62 540.721H972.994V648.348H1080.62V540.721Z" fill="url(#paint0_radial_1907_202)" fill-opacity="0.7"/>
<defs>
<radialGradient id="paint0_radial_1907_202" cx="0" cy="0" r="1" gradientUnits="userSpaceOnUse" gradientTransform="translate(541 336) rotate(83.5642) scale(397.002 661.541)">
<stop stop-color="#374F00"/>
<stop offset="1" stop-color="white" stop-opacity="0"/>
</radialGradient>
</defs>
</svg>
