<svg width="56" height="56" viewBox="0 0 56 56" fill="none" xmlns="http://www.w3.org/2000/svg">
<rect width="56" height="56" rx="8" fill="#C1E965"/>
<path d="M40.2286 34.6857C40.7654 34.1759 41.193 33.5622 41.4851 32.8819C41.7772 32.2016 41.9279 31.469 41.9279 30.7286C41.9279 29.9882 41.7772 29.2556 41.4851 28.5753C41.193 27.895 40.7654 27.2813 40.2286 26.7714C39.1296 25.7284 37.6723 25.1469 36.1572 25.1469C34.642 25.1469 33.1847 25.7284 32.0857 26.7714L28 30.8572L23.9143 26.7714C22.8153 25.7284 21.358 25.1469 19.8429 25.1469C18.3277 25.1469 16.8704 25.7284 15.7714 26.7714C15.2346 27.2813 14.8071 27.895 14.5149 28.5753C14.2228 29.2556 14.0721 29.9882 14.0721 30.7286C14.0721 31.469 14.2228 32.2016 14.5149 32.8819C14.8071 33.5622 15.2346 34.1759 15.7714 34.6857L28 46.5714L40.2286 34.6857ZM28 20.8572C29.5155 20.8572 30.969 20.2551 32.0406 19.1835C33.1123 18.1118 33.7143 16.6584 33.7143 15.1429C33.7143 13.6274 33.1123 12.1739 32.0406 11.1023C30.969 10.0306 29.5155 9.42859 28 9.42859C26.4845 9.42859 25.031 10.0306 23.9594 11.1023C22.8878 12.1739 22.2857 13.6274 22.2857 15.1429C22.2857 16.6584 22.8878 18.1118 23.9594 19.1835C25.031 20.2551 26.4845 20.8572 28 20.8572Z" stroke="#27272A" stroke-width="2.85714" stroke-linecap="round" stroke-linejoin="round"/>
</svg>
