<svg width="238" height="37" viewBox="0 0 238 37" fill="none" xmlns="http://www.w3.org/2000/svg">
<path d="M17.375 29L8.25391 18.6875L5.69531 21.4805V29H0.167969V1.40234H5.69531V14L17.0234 1.40234H24.0547L11.8477 14.7227L24.582 29H17.375ZM34.1328 29.4883C31.2552 29.4883 28.9505 28.707 27.2188 27.1445C25.487 25.569 24.6211 23.4792 24.6211 20.875V8.60938H29.8164V20.1523C29.8164 21.4544 30.207 22.4961 30.9883 23.2773C31.7826 24.0586 32.8307 24.4492 34.1328 24.4492C35.4349 24.4492 36.4766 24.0586 37.2578 23.2773C38.0521 22.4961 38.4492 21.4544 38.4492 20.1523V8.60938H43.6445V20.875C43.6445 23.4661 42.7721 25.5495 41.0273 27.125C39.2956 28.7005 36.9974 29.4883 34.1328 29.4883ZM233.547 29.3516C232.518 29.3516 231.652 29.0065 230.949 28.3164C230.259 27.6263 229.914 26.7734 229.914 25.7578C229.914 24.7422 230.259 23.8893 230.949 23.1992C231.652 22.5091 232.518 22.1641 233.547 22.1641C234.562 22.1641 235.415 22.5091 236.105 23.1992C236.796 23.8893 237.141 24.7422 237.141 25.7578C237.141 26.7734 236.796 27.6263 236.105 28.3164C235.415 29.0065 234.562 29.3516 233.547 29.3516Z" fill="#27272A"/>
<path d="M58.2148 29.4883C56.1185 29.4883 54.0286 29.0977 51.9453 28.3164C49.875 27.5221 48.1367 26.4674 46.7305 25.1523L49.582 20.9531C50.7279 22.0469 52.069 22.9258 53.6055 23.5898C55.1549 24.2409 56.6914 24.5664 58.2148 24.5664C59.6211 24.5664 60.819 24.2669 61.8086 23.668C62.7982 23.069 63.293 22.3008 63.293 21.3633C63.293 21.0378 63.2214 20.7383 63.0781 20.4648C62.9479 20.1784 62.7982 19.9375 62.6289 19.7422C62.4596 19.5339 62.1862 19.332 61.8086 19.1367C61.444 18.9284 61.1315 18.7721 60.8711 18.668C60.6237 18.5508 60.2396 18.4141 59.7188 18.2578C59.2109 18.1016 58.8268 17.9974 58.5664 17.9453C58.319 17.8802 57.9089 17.776 57.3359 17.6328C56.2422 17.3724 55.2331 17.0729 54.3086 16.7344C53.3841 16.3958 52.5052 15.9792 51.6719 15.4844C50.8516 14.9766 50.1549 14.4167 49.582 13.8047C49.0091 13.1927 48.5534 12.4831 48.2148 11.6758C47.8893 10.8555 47.7266 9.97656 47.7266 9.03906C47.7266 6.59115 48.6966 4.625 50.6367 3.14062C52.5768 1.65625 55.1029 0.914062 58.2148 0.914062C60.207 0.914062 62.0299 1.22656 63.6836 1.85156C65.3503 2.47656 66.7109 3.3099 67.7656 4.35156L65.207 8.51172C64.3997 7.73047 63.3516 7.09245 62.0625 6.59766C60.7865 6.08984 59.4779 5.83594 58.1367 5.83594C56.7565 5.83594 55.6237 6.11589 54.7383 6.67578C53.8529 7.23568 53.4102 7.94531 53.4102 8.80469C53.4102 9.3125 53.5664 9.76823 53.8789 10.1719C54.1914 10.5755 54.6341 10.9206 55.207 11.207C55.7799 11.4805 56.3464 11.7083 56.9062 11.8906C57.4661 12.0599 58.1172 12.2292 58.8594 12.3984C59.3411 12.5026 59.7969 12.6133 60.2266 12.7305C60.6693 12.8346 61.2487 13.0104 61.9648 13.2578C62.681 13.5052 63.332 13.7786 63.918 14.0781C64.5169 14.3646 65.1419 14.7422 65.793 15.2109C66.444 15.6797 66.9909 16.1875 67.4336 16.7344C67.8763 17.2682 68.2409 17.9193 68.5273 18.6875C68.8268 19.4427 68.9766 20.2565 68.9766 21.1289C68.9766 22.7435 68.5013 24.1953 67.5508 25.4844C66.6003 26.7604 65.3047 27.75 63.6641 28.4531C62.0365 29.1432 60.2201 29.4883 58.2148 29.4883ZM81.4766 29.4883C78.599 29.4883 76.2943 28.707 74.5625 27.1445C72.8307 25.569 71.9648 23.4792 71.9648 20.875V8.60938H77.1602V20.1523C77.1602 21.4544 77.5508 22.4961 78.332 23.2773C79.1263 24.0586 80.1745 24.4492 81.4766 24.4492C82.7786 24.4492 83.8203 24.0586 84.6016 23.2773C85.3958 22.4961 85.793 21.4544 85.793 20.1523V8.60938H90.9883V20.875C90.9883 23.4661 90.1159 25.5495 88.3711 27.125C86.6393 28.7005 84.3411 29.4883 81.4766 29.4883ZM120.227 8.12109C122.531 8.12109 124.374 8.8112 125.754 10.1914C127.147 11.5716 127.844 13.4141 127.844 15.7188V29H122.629V17.2812C122.629 16.0312 122.264 15.0352 121.535 14.293C120.819 13.5378 119.855 13.1602 118.645 13.1602C117.368 13.1602 116.333 13.5443 115.539 14.3125C114.745 15.0807 114.348 16.0964 114.348 17.3594V29H109.152V17.2812C109.152 16.0443 108.781 15.0482 108.039 14.293C107.31 13.5378 106.333 13.1602 105.109 13.1602C103.846 13.1602 102.818 13.5508 102.023 14.332C101.229 15.1003 100.832 16.1094 100.832 17.3594V29H95.6367V8.60938H100.832V10.7188C102.368 8.98698 104.38 8.12109 106.867 8.12109C108.286 8.12109 109.543 8.41406 110.637 9C111.743 9.57292 112.622 10.3867 113.273 11.4414C114.953 9.22786 117.271 8.12109 120.227 8.12109ZM144.309 8.12109C146.171 8.12109 147.857 8.58984 149.367 9.52734C150.891 10.4518 152.082 11.7344 152.941 13.375C153.801 15.0026 154.23 16.8125 154.23 18.8047C154.23 20.7969 153.801 22.6133 152.941 24.2539C152.082 25.8815 150.891 27.1641 149.367 28.1016C147.857 29.026 146.171 29.4883 144.309 29.4883C141.626 29.4883 139.413 28.5117 137.668 26.5586V29H132.473V0.191406H137.668V11.0312C139.4 9.09115 141.613 8.12109 144.309 8.12109ZM143.273 24.4492C144.888 24.4492 146.223 23.9154 147.277 22.8477C148.345 21.7669 148.879 20.4193 148.879 18.8047C148.879 17.1901 148.345 15.849 147.277 14.7812C146.223 13.7005 144.888 13.1602 143.273 13.1602C141.672 13.1602 140.337 13.7005 139.27 14.7812C138.202 15.862 137.668 17.2031 137.668 18.8047C137.668 20.4062 138.202 21.7474 139.27 22.8281C140.337 23.9089 141.672 24.4492 143.273 24.4492ZM173.508 8.60938H178.703V29H173.508V26.5586C171.724 28.5117 169.51 29.4883 166.867 29.4883C164.029 29.4883 161.659 28.4661 159.758 26.4219C157.857 24.3776 156.906 21.8385 156.906 18.8047C156.906 15.7708 157.857 13.2318 159.758 11.1875C161.659 9.14323 164.029 8.12109 166.867 8.12109C169.523 8.12109 171.737 9.09115 173.508 11.0312V8.60938ZM167.863 24.4492C169.478 24.4492 170.819 23.9089 171.887 22.8281C172.967 21.7474 173.508 20.4062 173.508 18.8047C173.508 17.2031 172.967 15.862 171.887 14.7812C170.819 13.7005 169.478 13.1602 167.863 13.1602C166.262 13.1602 164.927 13.7005 163.859 14.7812C162.792 15.862 162.258 17.2031 162.258 18.8047C162.258 20.4062 162.792 21.7474 163.859 22.8281C164.927 23.9089 166.262 24.4492 167.863 24.4492ZM195.324 8.12109C197.733 8.12109 199.66 8.84375 201.105 10.2891C202.564 11.7214 203.293 13.6354 203.293 16.0312V29H198.078V17.7109C198.078 16.3307 197.668 15.2305 196.848 14.4102C196.04 13.5768 194.96 13.1602 193.605 13.1602C192.186 13.1602 191.034 13.5898 190.148 14.4492C189.276 15.2956 188.84 16.4154 188.84 17.8086V29H183.645V8.60938H188.84V10.875C190.48 9.03906 192.642 8.12109 195.324 8.12109ZM220.91 29C222.941 29 224.628 29.5273 225.969 30.582C227.323 31.6497 228.169 33.1211 228.508 34.9961L223.137 36.4414C223.059 35.6992 222.727 35.1068 222.141 34.6641C221.555 34.2214 220.806 34 219.895 34H213.215C211.314 34 209.784 33.4987 208.625 32.4961C207.479 31.4935 206.906 30.1784 206.906 28.5508C206.906 27.5091 207.154 26.526 207.648 25.6016C208.156 24.6771 208.827 23.9544 209.66 23.4336C207.85 21.7409 206.945 19.625 206.945 17.0859C206.945 14.5208 207.85 12.3854 209.66 10.6797C211.483 8.97396 213.762 8.12109 216.496 8.12109C218.072 8.12109 219.556 8.4401 220.949 9.07812C221.249 7.97135 221.861 7.10547 222.785 6.48047C223.723 5.84245 224.855 5.52344 226.184 5.52344H227.863V10.3281H226.418C225.897 10.3281 225.441 10.4583 225.051 10.7188C224.673 10.9792 224.439 11.3372 224.348 11.793C225.52 13.3164 226.105 15.0807 226.105 17.0859C226.105 19.638 225.188 21.7669 223.352 23.4727C221.516 25.1784 219.23 26.0312 216.496 26.0312C215.376 26.0312 214.257 25.862 213.137 25.5234C212.447 25.9401 212.102 26.526 212.102 27.2812C212.102 27.776 212.303 28.1862 212.707 28.5117C213.111 28.8372 213.632 29 214.27 29H220.91ZM216.496 13.043C215.272 13.043 214.257 13.4271 213.449 14.1953C212.655 14.9635 212.258 15.9271 212.258 17.0859C212.258 18.2448 212.655 19.2083 213.449 19.9766C214.257 20.7448 215.272 21.1289 216.496 21.1289C217.707 21.1289 218.716 20.7448 219.523 19.9766C220.331 19.2083 220.734 18.2448 220.734 17.0859C220.734 15.9271 220.331 14.9635 219.523 14.1953C218.716 13.4271 217.707 13.043 216.496 13.043Z" fill="#C1E965"/>
</svg>
