<svg width="56" height="56" viewBox="0 0 56 56" fill="none" xmlns="http://www.w3.org/2000/svg">
<rect width="56" height="56" rx="8" fill="#C1E965"/>
<path d="M28 16.3333C27.337 16.3333 26.7011 16.5967 26.2322 17.0656C25.7634 17.5344 25.5 18.1703 25.5 18.8333C25.5 19.4964 25.7634 20.1323 26.2322 20.6011C26.7011 21.0699 27.337 21.3333 28 21.3333C28.663 21.3333 29.2989 21.0699 29.7678 20.6011C30.2366 20.1323 30.5 19.4964 30.5 18.8333C30.5 18.1703 30.2366 17.5344 29.7678 17.0656C29.2989 16.5967 28.663 16.3333 28 16.3333ZM22.1667 18.8333C22.1667 18.0673 22.3175 17.3087 22.6107 16.601C22.9039 15.8933 23.3335 15.2502 23.8752 14.7085C24.4169 14.1669 25.0599 13.7372 25.7677 13.444C26.4754 13.1509 27.234 13 28 13C28.766 13 29.5246 13.1509 30.2323 13.444C30.94 13.7372 31.5831 14.1669 32.1248 14.7085C32.6665 15.2502 33.0961 15.8933 33.3893 16.601C33.6824 17.3087 33.8333 18.0673 33.8333 18.8333C33.8333 20.3804 33.2187 21.8642 32.1248 22.9581C31.0308 24.0521 29.5471 24.6667 28 24.6667C26.4529 24.6667 24.9692 24.0521 23.8752 22.9581C22.7812 21.8642 22.1667 20.3804 22.1667 18.8333ZM16.3333 21.3333C15.8913 21.3333 15.4674 21.5089 15.1548 21.8215C14.8423 22.134 14.6667 22.558 14.6667 23C14.6667 23.442 14.8423 23.8659 15.1548 24.1785C15.4674 24.4911 15.8913 24.6667 16.3333 24.6667C16.7754 24.6667 17.1993 24.4911 17.5118 24.1785C17.8244 23.8659 18 23.442 18 23C18 22.558 17.8244 22.134 17.5118 21.8215C17.1993 21.5089 16.7754 21.3333 16.3333 21.3333ZM11.3333 23C11.3333 21.6739 11.8601 20.4021 12.7978 19.4645C13.7355 18.5268 15.0072 18 16.3333 18C17.6594 18 18.9312 18.5268 19.8689 19.4645C20.8065 20.4021 21.3333 21.6739 21.3333 23C21.3333 24.3261 20.8065 25.5979 19.8689 26.5355C18.9312 27.4732 17.6594 28 16.3333 28C15.0072 28 13.7355 27.4732 12.7978 26.5355C11.8601 25.5979 11.3333 24.3261 11.3333 23ZM38 23C38 22.558 38.1756 22.134 38.4881 21.8215C38.8007 21.5089 39.2246 21.3333 39.6667 21.3333C40.1087 21.3333 40.5326 21.5089 40.8452 21.8215C41.1577 22.134 41.3333 22.558 41.3333 23C41.3333 23.442 41.1577 23.8659 40.8452 24.1785C40.5326 24.4911 40.1087 24.6667 39.6667 24.6667C39.2246 24.6667 38.8007 24.4911 38.4881 24.1785C38.1756 23.8659 38 23.442 38 23ZM39.6667 18C38.3406 18 37.0688 18.5268 36.1311 19.4645C35.1934 20.4021 34.6667 21.6739 34.6667 23C34.6667 24.3261 35.1934 25.5979 36.1311 26.5355C37.0688 27.4732 38.3406 28 39.6667 28C40.9927 28 42.2645 27.4732 43.2022 26.5355C44.1399 25.5979 44.6667 24.3261 44.6667 23C44.6667 21.6739 44.1399 20.4021 43.2022 19.4645C42.2645 18.5268 40.9927 18 39.6667 18ZM21.3333 32.1667C21.3333 29.8667 23.2 28 25.5 28H30.5C32.8 28 34.6667 29.8667 34.6667 32.1667V36.3333C34.6667 38.1014 33.9643 39.7971 32.714 41.0474C31.4638 42.2976 29.7681 43 28 43C26.2319 43 24.5362 42.2976 23.286 41.0474C22.0357 39.7971 21.3333 38.1014 21.3333 36.3333V32.1667ZM25.5 31.3333C25.279 31.3333 25.067 31.4211 24.9107 31.5774C24.7545 31.7337 24.6667 31.9457 24.6667 32.1667V36.3333C24.6667 37.2174 25.0179 38.0652 25.643 38.6904C26.2681 39.3155 27.1159 39.6667 28 39.6667C28.8841 39.6667 29.7319 39.3155 30.357 38.6904C30.9821 38.0652 31.3333 37.2174 31.3333 36.3333V32.1667C31.3333 31.9457 31.2455 31.7337 31.0893 31.5774C30.933 31.4211 30.721 31.3333 30.5 31.3333H25.5ZM18 32.1667C18 31.2033 18.18 30.2833 18.5133 29.44L14.41 30.54C13.3432 30.826 12.4336 31.5238 11.881 32.4801C11.3285 33.4364 11.1783 34.573 11.4633 35.64L12.11 38.0567C12.3367 38.9024 12.7277 39.6953 13.2608 40.3899C13.7939 41.0845 14.4586 41.6673 15.217 42.105C15.9754 42.5427 16.8125 42.8267 17.6807 42.9408C18.5488 43.0549 19.4309 42.9969 20.2767 42.77L20.3333 42.7533C19.5644 41.8373 18.966 40.7907 18.5667 39.6633C17.8301 39.6671 17.113 39.4268 16.5274 38.9799C15.9418 38.533 15.5208 37.9048 15.33 37.1933L14.6833 34.7767C14.6263 34.5632 14.6565 34.3358 14.7671 34.1445C14.8778 33.9532 15.0598 33.8137 15.2733 33.7567L18 33.0233V32.1667ZM35.72 42.7667L35.6667 42.7567C36.4267 41.8467 37.03 40.8033 37.4333 39.6633C38.1694 39.6664 38.8857 39.4257 39.4706 38.9789C40.0555 38.5321 40.476 37.9043 40.6667 37.1933L41.31 34.7767C41.367 34.5632 41.3368 34.3358 41.2262 34.1445C41.1156 33.9532 40.9335 33.8137 40.72 33.7567L38 33.0267V32.1667C38 31.2033 37.82 30.2867 37.49 29.44L41.5833 30.54C42.6501 30.826 43.5597 31.5238 44.1123 32.4801C44.6648 33.4364 44.8151 34.573 44.53 35.64L43.8833 38.0567C43.6567 38.9024 43.2656 39.6953 42.7325 40.3899C42.1994 41.0845 41.5347 41.6673 40.7763 42.105C40.018 42.5427 39.1808 42.8267 38.3126 42.9408C37.4445 43.0549 36.5624 42.9969 35.7167 42.77" fill="#27272A"/>
</svg>
